<svg version="1.1" id="rosette-svg" xmlns="http://www.w3.org/2000/svg" xmlns:xlink="http://www.w3.org/1999/xlink" x="0px" y="0px" viewBox="0 0 1345 671" style="enable-background:new 0 0 1345 671;" xml:space="preserve" width="100%" height="100%">
       <g>
         <path style="fill: none; stroke: rgb(190,190,190); stroke-width: 1.1; stroke-linecap: round; stroke-miterlimit: 10; stroke-dasharray: 846, 848; stroke-dashoffset: 0;" d="M80.4,601.3c-7.3,8.7-32.5,2.5-32.9-19.6c-0.3-16.6,13.8-33.5,37-31.1c21.5,2.2,31.1,19,36.1,34.7
               c10.2,31.9-11.1,67-48.6,67c-52,0-76.8-63.7-62.1-132c15.7-72.7,65.2-114.7,110.3-99.2c32,11,38.8,61.7,17.1,86.6
               c-10.6,12.2-27,20.3-48.1,15.7S61.3,494.7,68,479.7c8.9-20,34.8-20.3,37.6-4.1"></path>
         <path style="fill: none; stroke: rgb(190,190,190); stroke-width: 1.1; stroke-linecap: round; stroke-miterlimit: 10; stroke-dasharray: 1037, 1039; stroke-dashoffset: 0;" d="M481.5,526.3c0,0,21.4-14.4,35.1,0.5c16.4,17.8,12.5,35.3-0.4,48.2s-36.8,13.1-51.2,0.8
               c-41.7-35.7-52.7-171-124.7-238.9c-40.8-38.4-101.1-24.6-126.2,15.7c-18.2,29.1-15.4,74.5,15.9,102.6c29.7,26.7,78.2,25.5,95,4.7
               c31.2-38.7-6.9-100.5-47-87.4c-51.4,16.8-23.8,72.8,5.5,60.5c8.6-3.6,13.8-16.3,9.8-22.7"></path>
         <path style="fill: none; stroke: rgb(190,190,190); stroke-width: 1.1; stroke-linecap: round; stroke-miterlimit: 10; stroke-dasharray: 781, 783; stroke-dashoffset: 0;" d="M228.1,279.1c1.9-10.3-17.9-26.8-34.1-15.5c-12.1,8.5-16.7,30.6-0.5,44.7c16.2,14.2,33.2,15.6,47.5,11.4
               c29.2-8.7,42.2-44.1,18.7-73.1c-25.1-31-89.1-29.8-132.7,20.1c-43.6,49.9-36.1,116-2.1,136.7c32,19.4,65.2-0.7,69.9-30.8
               c2.3-14.8-1.4-31.4-17.6-45.5s-37.5-6.7-44.3,6.5c-9,17.6,10,34.9,19.9,31.7"></path>
         <path style="fill: none; stroke: rgb(190,190,190); stroke-width: 1.1; stroke-linecap: round; stroke-miterlimit: 10; stroke-dasharray: 1013, 1015; stroke-dashoffset: 0;" d="M527.1,482c0,0-14.2,16-1.7,32.5s31.3,16.7,45.5,5.2c14.2-11.6,17-34.9,6.5-49.9
               c-30.2-43.5-159.3-66.7-219.7-140.7c-37.2-45.7-12.2-98.9,29.6-121.2c33.6-17.9,74.4-4.3,97.2,25.2c23.6,30.6,19.8,73.6-6.8,92.3
               c-47.9,33.6-91.9-20.4-79.2-54c19-50.5,77.6-16.9,58,11.1c-5.4,7.6-17,9.2-22.4,4.3"></path>
         <path style="fill: none; stroke: rgb(190,190,190); stroke-width: 1.1; stroke-linecap: round; stroke-miterlimit: 10; stroke-dasharray: 773, 775; stroke-dashoffset: 0;" d="M309.2,212.7c-10.4,0.7-24.6-20.8-11.5-35.6c9.8-11.1,32.3-13.1,44.5,4.6s11.8,34.7,5.9,48.5
               c-12,28.1-48.5,32.6-74.7,5.9c-27.9-28.4-17.2-89.9,34.9-125.2c54.9-37.2,116.9-23,133.6,13.1c15.7,34-5.6,65-36.1,66.3
               c-14.9,0.6-31-5-43.2-22.7s-2.4-38,11.5-43.2c18.5-6.9,33.6,13.9,29.3,23.4"></path>
         <path style="fill: none; stroke: rgb(190,190,190); stroke-width: 1.1; stroke-linecap: round; stroke-miterlimit: 10; stroke-dasharray: 1021, 1023; stroke-dashoffset: 0;" d="M641.6,437.6c0,0,22.3-2.1,23.8,22.2c1.5,24.3-13,33.5-31.3,34.6c-18.2,1.2-35.2-13.5-37.8-31.6
               c-7.4-52.5,71.5-157.2,65.5-252.6c-3.7-58.8-58.2-80.8-104.1-68.8c-35.2,9.2-58.7,40.6-56.1,81.2c2.6,40.6,35.2,69.7,67.5,66.7
               c49.8-4.6,69.8-76.5,24.4-95.1c-46.1-19-66.9,40.1-37.5,49.1c10,3.1,21.4-5.4,22.1-12.6"></path>
         <path style="fill: none; stroke: rgb(190,190,190); stroke-width: 1.1; stroke-linecap: round; stroke-miterlimit: 10; stroke-dasharray: 760, 762; stroke-dashoffset: 0;" d="M618,96.1c8-6.3,4.1-30.8-15.2-32.9c-14.5-1.5-32.2,11.7-29.3,32.3c2.8,20.6,14.4,32.4,27.8,38.3
               c27.3,12.1,59.8-5.4,61.2-41.5c1.5-38.4-46.6-78-111.2-69.2s-101.6,60-89.9,96.6c11,34.4,48.4,42.5,71.5,23.5
               c11.3-9.3,19.3-23.8,16.5-44.3s-23.4-28.6-37-23.2c-18,7.1-15.2,31.8-5.8,35.7"></path>
         <path style="fill: none; stroke: rgb(190,190,190); stroke-width: 1.1; stroke-linecap: round; stroke-miterlimit: 10; stroke-dasharray: 503, 505; stroke-dashoffset: 0;" d="M672,7.5L672,510.1"></path>
         <path style="fill: none; stroke: rgb(190,190,190); stroke-width: 1.1; stroke-linecap: round; stroke-miterlimit: 10; stroke-dasharray: 520, 522; stroke-dashoffset: 0;" d="M206,174.1L555.8,558.5"></path>
         <path style="fill: none; stroke: rgb(190,190,190); stroke-width: 1.1; stroke-linecap: round; stroke-miterlimit: 10; stroke-dasharray: 509, 511; stroke-dashoffset: 0;" d="M422.7,49.8L609.3,522.3"></path>
         <path style="fill: none; stroke: rgb(190,190,190); stroke-width: 1.1; stroke-linecap: round; stroke-miterlimit: 10; stroke-dasharray: 528, 530; stroke-dashoffset: 0;" d="M51.7,376.5L522.6,615"></path>
         <path style="fill: none; stroke: rgb(190,190,190); stroke-width: 1.1; stroke-linecap: round; stroke-miterlimit: 10; stroke-dasharray: 389, 391; stroke-dashoffset: 0;" d="M671.2,662.1C605,662,562,614.5,568.9,575.2c6.4-36.9,41.6-50.3,67.4-34c12.6,8,22.7,21.7,22.6,43.3
               c0,21.5-19.7,32.6-34,29c-19.2-4.8-19.7-30.5-10.7-35.9"></path>
         <path style="fill: none; stroke: rgb(190,190,190); stroke-width: 1.1; stroke-linecap: round; stroke-miterlimit: 10; stroke-dasharray: 214, 216; stroke-dashoffset: 0;" d="M518.7,632c11-69,75.4-121.9,153.3-121.9"></path>
         <path style="fill: none; stroke: rgb(190,190,190); stroke-width: 1.1; stroke-linecap: round; stroke-miterlimit: 10; stroke-dasharray: 924, 926; stroke-dashoffset: 0;" d="M672,7.5C327.2,7.5,44.2,236.8,7.8,531.3"></path>
         <path style="fill: none; stroke: rgb(190,190,190); stroke-width: 1.1; stroke-linecap: round; stroke-miterlimit: 10; stroke-dasharray: 1088, 1090; stroke-dashoffset: 0;" d="M478.8,631.6c-8.9,17,4.3,28.9,16.8,28c14.6-1,21.8-12.8,23.1-27.6c1.1-12-15.5-22.1-21.7-25.2
               c-58.8-29.6-144.4,64.1-261,59.5c-21.8-0.9-62.4-9.5-87.5-39.5c-17.9-21.5-27.9-55.6-16.9-88.6c12.1-36.1,49.1-67,97.2-58.5
               s77,52.8,67.1,85.2c-14.8,48.4-89.9,51.3-105.6,14.7c-4.1-9.6-4.8-20.6-1.6-29.7c8.3-23.9,38.4-26.6,51.9-14.4
               c9.5,8.6,9.2,24.4-4,30.5"></path>
       </g>
       <g>
         <path style="fill: none; stroke: rgb(190,190,190); stroke-width: 1.1; stroke-linecap: round; stroke-miterlimit: 10; stroke-dasharray: 846, 848; stroke-dashoffset: 0;" d="M1263.6,601.3c7.3,8.7,32.5,2.5,32.9-19.6c0.3-16.6-13.8-33.5-37-31.1c-21.5,2.2-31.1,19-36.1,34.7
               c-10.2,31.9,11.1,67,48.6,67c52,0,76.8-63.7,62.1-132c-15.7-72.7-65.2-114.7-110.3-99.2c-32,11-38.8,61.7-17.1,86.6
               c10.6,12.2,27,20.3,48.1,15.7c21.1-4.6,27.9-28.6,21.2-43.7c-8.9-20-34.8-20.3-37.6-4.1"></path>
         <path style="fill: none; stroke: rgb(190,190,190); stroke-width: 1.1; stroke-linecap: round; stroke-miterlimit: 10; stroke-dasharray: 1037, 1039; stroke-dashoffset: 0;" d="M862.4,526.3c0,0-21.4-14.4-35.1,0.5c-16.4,17.8-12.5,35.3,0.4,48.2s36.8,13.1,51.2,0.8
               c41.7-35.7,52.7-171,124.7-238.9c40.8-38.4,101.1-24.6,126.2,15.7c18.2,29.1,15.4,74.5-15.9,102.6c-29.7,26.7-78.2,25.5-95,4.7
               c-31.2-38.7,6.9-100.5,47-87.4c51.4,16.8,23.8,72.8-5.5,60.5c-8.6-3.6-13.8-16.3-9.8-22.7"></path>
         <path style="fill: none; stroke: rgb(190,190,190); stroke-width: 1.1; stroke-linecap: round; stroke-miterlimit: 10; stroke-dasharray: 781, 783; stroke-dashoffset: 0;" d="M1115.9,279.1c-1.8-10.3,17.9-26.8,34.1-15.5c12.2,8.5,16.7,30.6,0.5,44.7c-16.2,14.2-33.2,15.6-47.5,11.4
               c-29.2-8.7-42.2-44.1-18.7-73.1c25.1-31,89.1-29.8,132.7,20.1c43.6,49.9,36.1,116,2.1,136.7c-32,19.4-65.2-0.7-69.9-30.8
               c-2.3-14.8,1.4-31.4,17.7-45.5s37.5-6.7,44.3,6.5c9,17.6-10,34.9-19.9,31.7"></path>
         <path style="fill: none; stroke: rgb(190,190,190); stroke-width: 1.1; stroke-linecap: round; stroke-miterlimit: 10; stroke-dasharray: 1013, 1015; stroke-dashoffset: 0;" d="M816.8,482c0,0,14.2,16,1.7,32.5c-12.9,17-31.3,16.7-45.5,5.2c-14.2-11.6-17-34.9-6.5-49.9
               c30.2-43.5,159.3-66.7,219.7-140.7c37.2-45.7,12.2-98.9-29.6-121.2c-33.6-17.9-74.4-4.3-97.2,25.2c-23.6,30.6-19.8,73.6,6.8,92.3
               c47.9,33.6,91.9-20.4,79.2-54c-19-50.5-77.6-16.9-58,11.1c5.4,7.6,17,9.2,22.4,4.3"></path>
         <path style="fill: none; stroke: rgb(190,190,190); stroke-width: 1.1; stroke-linecap: round; stroke-miterlimit: 10; stroke-dasharray: 773, 775; stroke-dashoffset: 0;" d="M1034.7,212.7c10.4,0.7,24.6-20.8,11.5-35.6c-9.8-11.1-32.3-13.1-44.5,4.6s-11.8,34.7-5.9,48.5
               c12,28.1,48.5,32.6,74.7,5.9c27.9-28.4,17.2-89.9-34.9-125.2c-54.9-37.2-116.9-23-133.6,13.1c-15.7,34,5.6,65,36.1,66.3
               c14.9,0.6,31-5,43.3-22.7c12.2-17.7,2.4-38-11.4-43.2c-18.5-6.9-33.6,13.9-29.3,23.4"></path>
         <path style="fill: none; stroke: rgb(190,190,190); stroke-width: 1.1; stroke-linecap: round; stroke-miterlimit: 10; stroke-dasharray: 1021, 1023; stroke-dashoffset: 0;" d="M702.4,437.6c0,0-22.3-2.1-23.8,22.2c-1.5,24.3,13,33.5,31.3,34.6c18.2,1.2,35.2-13.5,37.8-31.6
               c7.4-52.5-71.5-157.2-65.5-252.6c3.7-58.8,58.2-80.8,104.1-68.8c35.2,9.2,58.7,40.6,56.1,81.2c-2.6,40.6-35.2,69.7-67.5,66.7
               c-49.8-4.6-69.8-76.5-24.4-95.1c46.1-19,66.9,40.1,37.5,49.1c-10,3.1-21.4-5.4-22.1-12.6"></path>
         <path style="fill: none; stroke: rgb(190,190,190); stroke-width: 1.1; stroke-linecap: round; stroke-miterlimit: 10; stroke-dasharray: 760, 762; stroke-dashoffset: 0;" d="M726,96.1c-8-6.3-4.1-30.8,15.2-32.9c14.5-1.5,32.2,11.7,29.3,32.3c-2.8,20.6-14.4,32.4-27.8,38.3
               c-27.3,12.1-59.8-5.4-61.2-41.5c-1.5-38.4,46.6-78,111.2-69.2s101.6,60,89.9,96.6c-11,34.4-48.4,42.5-71.5,23.5
               c-11.3-9.3-19.3-23.8-16.5-44.3s23.4-28.6,37-23.2c18,7.1,15.2,31.8,5.8,35.7"></path>
         <path style="fill: none; stroke: rgb(190,190,190); stroke-width: 1.1; stroke-linecap: round; stroke-miterlimit: 10; stroke-dasharray: 520, 522; stroke-dashoffset: 0;" d="M1138,174.1L788.2,558.5"></path>
         <path style="fill: none; stroke: rgb(190,190,190); stroke-width: 1.1; stroke-linecap: round; stroke-miterlimit: 10; stroke-dasharray: 509, 511; stroke-dashoffset: 0;" d="M921.3,49.8L734.6,522.3"></path>
         <path style="fill: none; stroke: rgb(190,190,190); stroke-width: 1.1; stroke-linecap: round; stroke-miterlimit: 10; stroke-dasharray: 528, 530; stroke-dashoffset: 0;" d="M1292.2,376.5L821.3,615"></path>
         <path style="fill: none; stroke: rgb(190,190,190); stroke-width: 1.1; stroke-linecap: round; stroke-miterlimit: 10; stroke-dasharray: 389, 391; stroke-dashoffset: 0;" d="M672.7,662.1c66.3-0.1,109.2-47.6,102.4-86.8c-6.4-36.9-41.6-50.3-67.4-34c-12.6,8-22.7,21.7-22.6,43.3
               c0,21.5,19.7,32.6,34,29c19.2-4.8,19.7-30.5,10.7-35.9"></path>
         <path style="fill: none; stroke: rgb(190,190,190); stroke-width: 1.1; stroke-linecap: round; stroke-miterlimit: 10; stroke-dasharray: 214, 216; stroke-dashoffset: 0;" d="M825.2,632c-11-69-75.4-121.9-153.3-121.9"></path>
         <path style="fill: none; stroke: rgb(190,190,190); stroke-width: 1.1; stroke-linecap: round; stroke-miterlimit: 10; stroke-dasharray: 924, 926; stroke-dashoffset: 0;" d="M672,7.5c344.8,0,627.8,229.2,664.2,523.8"></path>
         <path style="fill: none; stroke: rgb(190,190,190); stroke-width: 1.1; stroke-linecap: round; stroke-miterlimit: 10; stroke-dasharray: 1088, 1090; stroke-dashoffset: 0;" d="M865.1,631.6c8.9,17-4.3,28.9-16.8,28c-14.6-1-21.8-12.8-23.1-27.6c-1.1-12,15.5-22.1,21.7-25.2
               c58.8-29.6,144.3,64.1,261.1,59.5c21.8-0.9,62.4-9.5,87.5-39.5c17.9-21.5,27.9-55.6,16.9-88.6c-12.1-36.1-49.1-67-97.2-58.5
               c-47.4,8.4-77,52.8-67.1,85.2c14.8,48.4,89.9,51.3,105.6,14.7c4.1-9.6,4.8-20.6,1.6-29.7c-8.3-23.9-38.4-26.6-51.9-14.4
               c-9.5,8.6-9.2,24.4,4,30.5"></path>
       </g>
     </svg>